#!OML:ASF H:\Pregnant\Project 1\Capture day 1\Session 1\femalepreg.ASF
:FULLY-SPECIFIED
:DEGREES
259
root 5.08062 15.7495 28.0448 -176.184 -87.6139 -165.426
lowerback -29.4477 0.551244 -1.4008
upperback -3.99632 0.563092 1.34078
thorax 11.7525 -0.0130686 2.529
lowerneck -2.00968 2.75646 4.61658
upperneck 21.0575 3.35226 -2.79083
head 6.87017 1.52312 -1.48717
rclavicle -2.02512e-015 -1.78906e-014
rhumerus 3.07896 4.54162 -93.4113
rradius 145.536
rwrist 24.0035
rhand -55.4195 5.4271
rfingers 7.12502
rthumb -27.7813 -22.5397
lclavicle -2.02512e-015 -1.78906e-014
lhumerus 7.57857 -2.13889 95.0286
lradius 147.746
lwrist 9.76238
lhand -47.7018 -55.9257
lfingers 7.12502
lthumb -20.3818 -26.9753
rfemur -25.3904 19.4981 19.3223
rtibia 27.4453
rfoot -15.539 -16.8387
rtoes -3.25359
lfemur 0 0 0
ltibia 0
lfoot 0 0
ltoes 0
260
root 5.08333 15.7501 28.0452 -175.745 -87.6168 -165.845
lowerback -29.4239 0.538419 -1.45901
upperback -4.00187 0.56106 1.36779
thorax 11.7329 -0.0169468 2.59252
lowerneck -2.00189 2.74819 4.60037
upperneck 21.058 3.34103 -2.78378
head 6.86806 1.51704 -1.48303
rclavicle 9.20621e-015 2.62396e-014
rhumerus 3.10744 4.55624 -93.4172
rradius 145.56
rwrist 23.8995
rhand -55.4062 5.59722
rfingers 7.12502
rthumb -27.7686 -22.3717
lclavicle 9.20621e-015 2.62396e-014
lhumerus 7.58596 -2.22136 95.1091
lradius 147.701
lwrist 9.70441
lhand -47.6817 -55.6173
lfingers 7.12502
lthumb -20.3625 -26.6649
rfemur -25.4415 19.5133 19.287
rtibia 27.4752
rfoot -15.5466 -16.8615
rtoes -3.21405
lfemur 0 0 0
ltibia 0
lfoot 0 0
ltoes 0
261
root 5.08613 15.7506 28.046 -175.271 -87.6226 -166.3
lowerback -29.4012 0.52996 -1.51515
upperback -4.00364 0.564845 1.39087
thorax 11.718 -0.017919 2.65265
lowerneck -1.99956 2.7348 4.58461
upperneck 21.0547 3.32288 -2.7769
head 6.86539 1.50777 -1.47939
rclavicle -2.38542e-015 -5.1684e-015
rhumerus 3.13477 4.55542 -93.4084
rradius 145.581
rwrist 23.7957
rhand -55.4103 5.8283
rfingers 7.12502
rthumb -27.7725 -22.14
lclavicle -2.38542e-015 -5.1684e-015
lhumerus 7.58983 -2.32302 95.1905
lradius 147.662
lwrist 9.67349
lhand -47.6524 -55.3114
lfingers 7.12502
lthumb -20.3344 -26.3559
rfemur -25.4926 19.524 19.2495
rtibia 27.5062
rfoot -15.5555 -16.8822
rtoes -3.16904
lfemur 0 0 0
ltibia 0
lfoot 0 0
ltoes 0
262
root 5.08897 15.751 28.047 -174.809 -87.63 -166.746
lowerback -29.3773 0.52212 -1.57014
upperback -4.00026 0.569706 1.41231
thorax 11.7084 -0.0182389 2.71076
lowerneck -2.00649 2.71943 4.57751
upperneck 21.0499 3.30259 -2.77737
head 6.86409 1.49764 -1.4796
rclavicle 7.03201e-015 1.27222e-014
rhumerus 3.16447 4.54509 -93.3899
rradius 145.597
rwrist 23.6814
rhand -55.438 6.05119
rfingers 7.12502
rthumb -27.799 -21.9128
lclavicle 7.03201e-015 1.27222e-014
lhumerus 7.59142 -2.42573 95.2699
lradius 147.627
lwrist 9.65947
lhand -47.6086 -55.0095
lfingers 7.12502
lthumb -20.2923 -26.0496
rfemur -25.5393 19.5289 19.2139
rtibia 27.5374
rfoot -15.5644 -16.8978
rtoes -3.13444
lfemur 0 0 0
ltibia 0
lfoot 0 0
ltoes 0
263
root 5.09187 15.7513 28.0481 -174.359 -87.6354 -167.185
lowerback -29.3517 0.516826 -1.62138
upperback -3.98955 0.576971 1.43559
thorax 11.7064 -0.0172888 2.76983
lowerneck -2.03318 2.70292 4.55885
upperneck 21.0491 3.28145 -2.77769
head 6.86724 1.48625 -1.47765
rclavicle 9.51682e-015 2.78299e-015
rhumerus 3.20242 4.5324 -93.3556
rradius 145.607
rwrist 23.5541
rhand -55.4835 6.18454
rfingers 7.12502
rthumb -27.8425 -21.7724
lclavicle 9.51682e-015 2.78299e-015
lhumerus 7.5967 -2.52162 95.3441
lradius 147.596
lwrist 9.68865
lhand -47.5598 -54.7103
lfingers 7.12502
lthumb -20.2454 -25.7454
rfemur -25.5801 19.5274 19.1816
rtibia 27.5679
rfoot -15.5707 -16.9057
rtoes -3.1253
lfemur 0 0 0
ltibia 0
lfoot 0 0
ltoes 0
264
root 5.0948 15.7514 28.0495 -173.965 -87.6376 -167.576
lowerback -29.3222 0.512111 -1.66269
upperback -3.97245 0.582024 1.46104
thorax 11.71 -0.0169239 2.82486
lowerneck -2.07939 2.69047 4.52566
upperneck 21.0541 3.2663 -2.7751
head 6.87561 1.47683 -1.47169
rclavicle 1.51076e-014 1.03368e-014
rhumerus 3.2467 4.52567 -93.3176
rradius 145.612
rwrist 23.413
rhand -55.5543 6.08404
rfingers 7.12502
rthumb -27.9102 -21.8619
lclavicle 1.51076e-014 1.03368e-014
lhumerus 7.60665 -2.58055 95.3999
lradius 147.572
lwrist 9.77346
lhand -47.5132 -54.4105
lfingers 7.12502
lthumb -20.2006 -25.4408
rfemur -25.6125 19.5161 19.1555
rtibia 27.5968
rfoot -15.5761 -16.9035
rtoes -3.13806
lfemur 0 0 0
ltibia 0
lfoot 0 0
ltoes 0
265
root 5.09769 15.7514 28.0509 -173.609 -87.6351 -167.934
lowerback -29.2856 0.505925 -1.69503
upperback -3.95281 0.582079 1.48971
thorax 11.7134 -0.0184652 2.87637
lowerneck -2.14164 2.68466 4.4732
upperneck 21.0673 3.26054 -2.7667
head 6.88936 1.4708 -1.45982
rclavicle -9.0447e-015 9.93923e-015
rhumerus 3.28833 4.54123 -93.2829
rradius 145.611
rwrist 23.2775
rhand -55.6531 5.73658
rfingers 7.12502
rthumb -28.0046 -22.194
lclavicle -9.0447e-015 9.93923e-015
lhumerus 7.61436 -2.59912 95.4347
lradius 147.554
lwrist 9.89905
lhand -47.4687 -54.1036
lfingers 7.12502
lthumb -20.1578 -25.1294
rfemur -25.6372 19.5055 19.1329
rtibia 27.6238
rfoot -15.5833 -16.8958
rtoes -3.14745
lfemur 0 0 0
ltibia 0
lfoot 0 0
ltoes 0
266
root 5.10048 15.7513 28.0523 -173.31 -87.6296 -168.241
lowerback -29.2435 0.499295 -1.71913
upperback -3.93259 0.578547 1.52152
thorax 11.7149 -0.0213247 2.92523
lowerneck -2.21543 2.68407 4.40267
upperneck 21.0866 3.26205 -2.75114
head 6.90693 1.46737 -1.44199
rclavicle -1.23743e-014 -1.70955e-014
rhumerus 3.32431 4.573 -93.2511
rradius 145.607
rwrist 23.1496
rhand -55.731 5.38566
rfingers 7.12502
rthumb -28.0791 -22.5327
lclavicle -1.23743e-014 -1.70955e-014
lhumerus 7.61967 -2.57385 95.4565
lradius 147.541
lwrist 10.0441
lhand -47.4237 -53.7976
lfingers 7.12502
lthumb -20.1146 -24.8189
rfemur -25.6538 19.494 19.1145
rtibia 27.6469
rfoot -15.5942 -16.8819
rtoes -3.13844
lfemur 0 0 0
ltibia 0
lfoot 0 0
ltoes 0
267
root 5.10322 15.7511 28.0536 -173.073 -87.6228 -168.49
lowerback -29.1961 0.490562 -1.73363
upperback -3.91283 0.569247 1.55314
thorax 11.7136 -0.0263465 2.96598
lowerneck -2.29978 2.69047 4.32615
upperneck 21.109 3.27256 -2.72975
head 6.92756 1.46823 -1.42052
rclavicle 1.88845e-014 2.34566e-014
rhumerus 3.35576 4.61386 -93.2262
rradius 145.605
rwrist 23.013
rhand -55.7797 5.03553
rfingers 7.12502
rthumb -28.1257 -22.8752
lclavicle 1.88845e-014 2.34566e-014
lhumerus 7.62107 -2.5129 95.4544
lradius 147.536
lwrist 10.2002
lhand -47.384 -53.5021
lfingers 7.12502
lthumb -20.0765 -24.5194
rfemur -25.6629 19.4839 19.0996
rtibia 27.6647
rfoot -15.6075 -16.8646
rtoes -3.10988
lfemur 0 0 0
ltibia 0
lfoot 0 0
ltoes 0
268
root 5.10579 15.7511 28.0547 -172.946 -87.6171 -168.629
lowerback -29.1457 0.478076 -1.7483
upperback -3.89667 0.5547 1.58602
thorax 11.707 -0.0337873 3.00613
lowerneck -2.38168 2.70022 4.26625
upperneck 21.1253 3.28767 -2.71443
head 6.94641 1.47221 -1.40347
rclavicle 8.32411e-015 1.31198e-014
rhumerus 3.37558 4.65916 -93.2042
rradius 145.603
rwrist 22.8861
rhand -55.7806 4.82162
rfingers 7.12502
rthumb -28.1266 -23.089
lclavicle 8.32411e-015 1.31198e-014
lhumerus 7.60886 -2.45 95.4503
lradius 147.535
lwrist 10.3082
lhand -47.3468 -53.2319
lfingers 7.12502
lthumb -20.0407 -24.2454
rfemur -25.6651 19.4739 19.0915
rtibia 27.6763
rfoot -15.6178 -16.8491
rtoes -3.07901
lfemur 0 0 0
ltibia 0
lfoot 0 0
ltoes 0
269
root 5.10827 15.7512 28.0556 -172.891 -87.6143 -168.697
lowerback -29.0943 0.465979 -1.76619
upperback -3.8842 0.541247 1.61994
thorax 11.6954 -0.0408793 3.04964
lowerneck -2.4655 2.70833 4.21293
upperneck 21.134 3.30038 -2.69919
head 6.96315 1.47572 -1.38764
rclavicle 5.71506e-015 -1.03368e-014
rhumerus 3.38499 4.69707 -93.1726
rradius 145.601
rwrist 22.7708
rhand -55.7547 4.67209
rfingers 7.12502
rthumb -28.1018 -23.2426
lclavicle 5.71506e-015 -1.03368e-014
lhumerus 7.58574 -2.39955 95.4559
lradius 147.537
lwrist 10.3699
lhand -47.3135 -53.011
lfingers 7.12502
lthumb -20.0087 -24.0212
rfemur -25.6637 19.4641 19.0871
rtibia 27.6824
rfoot -15.6263 -16.8339
rtoes -3.04307
lfemur 0 0 0
ltibia 0
lfoot 0 0
ltoes 0
270
root 5.11063 15.7513 28.0563 -172.924 -87.6157 -168.675
lowerback -29.0427 0.450919 -1.78487
upperback -3.87485 0.523983 1.65379
thorax 11.6803 -0.0497532 3.09202
lowerneck -2.55465 2.71778 4.17204
upperneck 21.1332 3.31432 -2.68454
head 6.97804 1.48096 -1.37387
rclavicle 2.88238e-015 -1.86858e-014
rhumerus 3.38517 4.73593 -93.1365
rradius 145.597
rwrist 22.6741
rhand -55.7052 4.65055
rfingers 7.12502
rthumb -28.0544 -23.2719
lclavicle 2.88238e-015 -1.86858e-014
lhumerus 7.55565 -2.34971 95.4594
lradius 147.541
lwrist 10.3948
lhand -47.2848 -52.8511
lfingers 7.12502
lthumb -19.9811 -23.8584
rfemur -25.6587 19.4507 19.0885
rtibia 27.6825
rfoot -15.6278 -16.8201
rtoes -3.0254
lfemur 0 0 0
ltibia 0
lfoot 0 0
ltoes 0
271
root 5.11299 15.7515 28.057 -173.02 -87.6214 -168.59
lowerback -28.9899 0.437018 -1.80519
upperback -3.86847 0.508244 1.68962
thorax 11.6611 -0.058025 3.13811
lowerneck -2.6569 2.72451 4.12296
upperneck 21.1241 3.32413 -2.6617
head 6.99214 1.48451 -1.35614
rclavicle 1.9133e-015 3.18055e-015
rhumerus 3.37505 4.77271 -93.0851
rradius 145.589
rwrist 22.6043
rhand -55.6719 4.60409
rfingers 7.12502
rthumb -28.0227 -23.3235
lclavicle 1.9133e-015 3.18055e-015
lhumerus 7.51973 -2.30991 95.4744
lradius 147.548
lwrist 10.3969
lhand -47.2632 -52.7497
lfingers 7.12502
lthumb -19.9603 -23.7548
rfemur -25.6525 19.4386 19.0922
rtibia 27.6786
rfoot -15.623 -16.8089
rtoes -3.02679
lfemur 0 0 0
ltibia 0
lfoot 0 0
ltoes 0
272
root 5.11526 15.7518 28.0575 -173.144 -87.6295 -168.474
lowerback -28.9381 0.426061 -1.82664
upperback -3.86502 0.496428 1.72552
thorax 11.6387 -0.0645495 3.18636
lowerneck -2.77507 2.72764 4.06199
upperneck 21.1063 3.32815 -2.62611
head 7.00555 1.48568 -1.33243
rclavicle 1.3741e-014 6.75868e-015
rhumerus 3.35381 4.80458 -93.0217
rradius 145.584
rwrist 22.5449
rhand -55.6535 4.57176
rfingers 7.12502
rthumb -28.0051 -23.3588
lclavicle 1.3741e-014 6.75868e-015
lhumerus 7.47717 -2.28257 95.5002
lradius 147.558
lwrist 10.3967
lhand -47.244 -52.6991
lfingers 7.12502
lthumb -19.9418 -23.7023
rfemur -25.646 19.4274 19.0969
rtibia 27.672
rfoot -15.6148 -16.7999
rtoes -3.03698
lfemur 0 0 0
ltibia 0
lfoot 0 0
ltoes 0
273
root 5.11743 15.7521 28.0579 -173.285 -87.6397 -168.339
lowerback -28.8855 0.415523 -1.84618
upperback -3.86617 0.484394 1.76013
thorax 11.6105 -0.0710276 3.23181
lowerneck -2.91453 2.73102 3.99359
upperneck 21.0849 3.33143 -2.57978
head 7.02125 1.487 -1.30374
rclavicle -6.93262e-015 -1.86858e-014
rhumerus 3.31729 4.84698 -92.9564
rradius 145.579
rwrist 22.506
rhand -55.688 4.44522
rfingers 7.12502
rthumb -28.0381 -23.4799
lclavicle -6.93262e-015 -1.86858e-014
lhumerus 7.42589 -2.25783 95.5235
lradius 147.572
lwrist 10.3984
lhand -47.2308 -52.688
lfingers 7.12502
lthumb -19.9292 -23.6899
rfemur -25.6421 19.4251 19.0998
rtibia 27.665
rfoot -15.6044 -16.7995
rtoes -3.04727
lfemur 0 0 0
ltibia 0
lfoot 0 0
ltoes 0
